<svg viewBox="0 0 16 16" fill="none" xmlns="http://www.w3.org/2000/svg">
<path d="M8.00096 7.35044L10.7016 10.2611C10.9817 10.5612 11.4618 10.5812 11.7619 10.3012C12.0619 10.0211 12.0819 9.54097 11.8019 9.2409L8.55109 5.73006C8.55109 5.73006 8.53109 5.73006 8.53109 5.71005C8.53109 5.69005 8.53109 5.69005 8.51108 5.69005C8.48107 5.66004 8.44107 5.65004 8.41106 5.63003C8.37105 5.60002 8.33104 5.57002 8.28103 5.55001C8.23101 5.53001 8.19101 5.53001 8.14099 5.52C8.09098 5.52 8.05097 5.5 8.00096 5.5C7.95095 5.5 7.91094 5.51 7.86093 5.52C7.81091 5.52 7.7709 5.53001 7.72089 5.55001C7.67088 5.57002 7.64087 5.60002 7.59086 5.63003C7.56085 5.65004 7.52084 5.66004 7.49084 5.69005C7.49084 5.69005 7.49084 5.71005 7.47083 5.71005C7.47083 5.71005 7.45083 5.71005 7.45083 5.73005L4.20005 9.23089C4.07002 9.37093 4 9.56097 4 9.74102C4 9.94106 4.08002 10.1411 4.24006 10.2911C4.54013 10.5712 5.02024 10.5512 5.30031 10.2511L8.00096 7.35044Z" fill="#001738"/>
</svg>
