<svg viewBox="0 0 16 16" fill="none" xmlns="http://www.w3.org/2000/svg">
<path fill-rule="evenodd" clip-rule="evenodd" d="M1.99999 1.64258C2.19765 1.64258 2.35788 1.80281 2.35788 2.00047V12.9338C2.35788 13.1264 2.35816 13.2493 2.36577 13.3425C2.37305 13.4316 2.38519 13.4615 2.39153 13.474C2.42114 13.5321 2.46837 13.5793 2.52647 13.6089C2.53891 13.6153 2.5689 13.6274 2.65793 13.6347C2.75114 13.6423 2.87406 13.6426 3.06665 13.6426H14C14.1976 13.6426 14.3579 13.8028 14.3579 14.0005C14.3579 14.1981 14.1976 14.3584 14 14.3584H3.05305C2.87798 14.3584 2.72551 14.3584 2.59964 14.3481C2.46634 14.3372 2.33168 14.313 2.20151 14.2467C2.00873 14.1485 1.85199 13.9917 1.75376 13.7989C1.68744 13.6688 1.66325 13.5341 1.65236 13.4008C1.64208 13.2749 1.64208 13.1225 1.64209 12.9474L1.64209 2.00047C1.64209 1.80281 1.80233 1.64258 1.99999 1.64258ZM10.9754 4.66714C10.9754 4.46948 11.1357 4.30924 11.3333 4.30924H14C14.1976 4.30924 14.3579 4.46948 14.3579 4.66714V7.33381C14.3579 7.53147 14.1976 7.6917 14 7.6917C13.8023 7.6917 13.6421 7.53147 13.6421 7.33381V5.53117L10.6223 8.55096C10.5632 8.61013 10.5046 8.66873 10.4507 8.71445C10.3913 8.76491 10.3145 8.82035 10.2136 8.85313C10.0748 8.89824 9.92521 8.89824 9.78638 8.85313C9.6855 8.82035 9.60871 8.76491 9.54926 8.71445C9.4954 8.66873 9.43682 8.61013 9.37766 8.55096L8.12404 7.29733C8.06357 7.23687 8.02728 7.20087 7.99999 7.17643C7.97269 7.20087 7.9364 7.23687 7.87593 7.29733L4.91972 10.2535C4.77996 10.3933 4.55335 10.3933 4.41358 10.2535C4.27382 10.1138 4.27382 9.88717 4.41358 9.7474L7.37765 6.78333C7.43682 6.72415 7.4954 6.66555 7.54926 6.61983C7.6087 6.56936 7.6855 6.51393 7.78638 6.48115C7.92521 6.43604 8.07476 6.43604 8.21359 6.48115C8.31447 6.51393 8.39127 6.56937 8.45071 6.61983C8.50457 6.66555 8.56314 6.72414 8.6223 6.78331L9.87593 8.03695C9.9364 8.09741 9.97269 8.13341 9.99998 8.15784C10.0273 8.13341 10.0636 8.09741 10.124 8.03695L13.136 5.02503H11.3333C11.1357 5.02503 10.9754 4.8648 10.9754 4.66714Z" fill="#001738"/>
</svg>
